# xmcd
#
# Track frame offsets:
#	183
#	11923
#	31003
#	47195
#	56880
#	67275
#	78903
#	91145
#	105138
#	124395
#
# Disc length: 1856 seconds
# Revision: 6
# Processed by: cddbd v1.5.2PL0 Copyright (c) Steve Scherf et al.
# Submitted via: dBpowerAMP V12.0
#
DISCID=80073e0a
DTITLE=Hank Williams, Jr. - America (The Way I See It)
DYEAR=1990
DGENRE=Country
TTITLE0=Don't Give Us a Reason
TTITLE1=Mr. Lincoln
TTITLE2=I've Got Rights
TTITLE3=The Coalition to Ban Coalitions
TTITLE4=All My Rowdy Friends Are Coming Over For Monday Night Football
TTITLE5=Give a Damn
TTITLE6=Practice What I Preach
TTITLE7=The American Way
TTITLE8=A Country Boy Can Survive
TTITLE9=U.S.A. Today
EXTD=
EXTT0=
EXTT1=
EXTT2=
EXTT3=
EXTT4=
EXTT5=
EXTT6=
EXTT7=
EXTT8=
EXTT9=
PLAYORDER=
